# xmcd CD database file
#
# Track frame offsets:
#	150
#	17937
#	36112
#	53617
#	70670
#	85533
#	111441
#	128493
#	144949
#	157942
#	173576
#	191878
#
# Disc length: 2840 seconds
#
# Revision: 0
# Processed by: cddbd v1.5.1PL2 Copyright (c) Steve Scherf et al.
# Submitted via: CDex 1.51
#
DISCID=910b160c
DTITLE=Kelly Lee Evans - Fight or Flight?
DYEAR=2006
DGENRE=Jazz
TTITLE0=What About Me?
TTITLE1=Lead Me Closer
TTITLE2=Hooked
TTITLE3=I Don't Want You To Love Me
TTITLE4=Fight or Flight?  (Help Me, Help You!)
TTITLE5=I Don't Think I Want To Know
TTITLE6=Let's Call a Truce Tonight
TTITLE7=Rapunzel
TTITLE8=How Can You Get Along Without Me?
TTITLE9=Enough
TTITLE10=Who Knows
TTITLE11=What About Me?
EXTD=YEAR: 2006
EXTT0=
EXTT1=
EXTT2=
EXTT3=
EXTT4=
EXTT5=
EXTT6=
EXTT7=
EXTT8=
EXTT9=
EXTT10=
EXTT11=
PLAYORDER=
